HIERARCHY
ROOT Hips
{
  OFFSET 2.26061 22.2878 23.7974
  CHANNELS 6 Xposition Yposition Zposition Zrotation Xrotation Yrotation
  JOINT LeftUpLeg
  {
    OFFSET 8.64259 1.95398 -2.38835
    CHANNELS 3 Zrotation Xrotation Yrotation
    JOINT LeftLeg
    {
      OFFSET 43.7702 0 0
      CHANNELS 3 Zrotation Xrotation Yrotation
      JOINT LeftFoot
      {
        OFFSET 40.6238 0 0
        CHANNELS 3 Zrotation Xrotation Yrotation
        JOINT LeftToeBase
        {
          OFFSET 12.7242 0 0
          CHANNELS 3 Zrotation Xrotation Yrotation
          End Site
          {
            OFFSET 0 0 0
          }
        }
      }
    }
  }
  JOINT RightUpLeg
  {
    OFFSET -8.2249 1.95398 -2.59336
    CHANNELS 3 Zrotation Xrotation Yrotation
    JOINT RightLeg
    {
      OFFSET 43.5653 0 0
      CHANNELS 3 Zrotation Xrotation Yrotation
      JOINT RightFoot
      {
        OFFSET 40.6238 0 0
        CHANNELS 3 Zrotation Xrotation Yrotation
        JOINT RightToeBase
        {
          OFFSET 12.7242 0 0
          CHANNELS 3 Zrotation Xrotation Yrotation
          End Site
          {
            OFFSET 0 0 0
          }
        }
      }
    }
  }
  JOINT Spine
  {
    OFFSET 0.165834 0.87714 6.61349
    CHANNELS 3 Zrotation Xrotation Yrotation
    JOINT Spine1
    {
      OFFSET 7.38963 1.71661e-005 0
      CHANNELS 3 Zrotation Xrotation Yrotation
      JOINT Spine2
      {
        OFFSET 11.9445 1.14441e-005 0
        CHANNELS 3 Zrotation Xrotation Yrotation
        JOINT Spine3
        {
          OFFSET 14.7254 4.19617e-005 0
          CHANNELS 3 Zrotation Xrotation Yrotation
          JOINT Spine4
          {
            OFFSET 10.9679 0 0
            CHANNELS 3 Zrotation Xrotation Yrotation
            JOINT RightShoulder
            {
              OFFSET 2.46616 -1.6653 3.69651
              CHANNELS 3 Zrotation Xrotation Yrotation
              JOINT RightArm
              {
                OFFSET 13.0012 0 0
                CHANNELS 3 Zrotation Xrotation Yrotation
                JOINT RightForeArm
                {
                  OFFSET 28.7848 1.52588e-005 0
                  CHANNELS 3 Zrotation Xrotation Yrotation
                  JOINT RightHand
                  {
                    OFFSET 26.5688 1.52588e-005 0
                    CHANNELS 3 Zrotation Xrotation Yrotation
                    End Site
                    {
                      OFFSET 0 0 0
                    }
                  }
                }
              }
            }
            JOINT LeftShoulder
            {
              OFFSET 2.38034 -1.29275 -3.7523
              CHANNELS 3 Zrotation Xrotation Yrotation
              JOINT LeftArm
              {
                OFFSET 16.3182 6.10351e-005 0
                CHANNELS 3 Zrotation Xrotation Yrotation
                JOINT LeftForeArm
                {
                  OFFSET 27.0901 0 0
                  CHANNELS 3 Zrotation Xrotation Yrotation
                  JOINT LeftHand
                  {
                    OFFSET 24.5451 1.52588e-005 0
                    CHANNELS 3 Zrotation Xrotation Yrotation
                    End Site
                    {
                      OFFSET 0 0 0
                    }
                  }
                }
              }
            }
            JOINT Neck
            {
              OFFSET 5.0226 -0.0266342 0
              CHANNELS 3 Zrotation Xrotation Yrotation
              JOINT Head
              {
                OFFSET 6.69363 2.86102e-005 0
                CHANNELS 3 Zrotation Xrotation Yrotation
                End Site
                {
                  OFFSET 0 0 0
                }
              }
            }
          }
        }
      }
    }
  }
}
MOTION
Frames:	10
Frame Time:	0.0416667
-6.24938 97.4477 -0.111154 88.9298 -38.3337 89.2167 -172.685 5.86345 88.7775 -10.9711 11.4923 -0.77331 62.5209 2.51408 1.90947 30.3074 1.33126 -1.59902 174.646 4.3343 91.9464 -10.4381 -6.19448 -1.45275 64.9911 -2.72879 -1.50352 25.797 -0.11977 -0.331327 -0.0777576 6.69396 -89.9491 13.4633 -0.129568 0.118629 1.79235 -0.124236 0.124222 -20.7429 -0.159233 0.0660334 -0.73021 -0.159223 0.0660328 91.1627 -55.2837 -97.9814 20.9527 -8.82961 -0.108204 -8.83844 -30.4912 -42.6339 -3.03051 -0.861904 8.1233 -108.981 -54.8778 53.5405 -14.4762 18.4115 0.748158 2.37786 17.9484 -30.1867 9.8921 0.91523 4.97072 13.047 -2.05661 4.34637 -5.79771 -2.95058 -2.84524 
-6.23899 97.4341 -0.134421 88.8738 -38.1954 89.1977 -172.73 6.10295 88.7289 -11.2316 12.8097 -0.811982 62.5827 2.71477 3.21166 29.6822 0.77064 -0.66862 174.712 4.44223 91.9812 -10.5726 -6.1572 -1.48803 65.1103 -2.79808 -1.54442 26.8979 -0.0615532 -0.402082 -0.0878165 6.69397 -89.9501 13.4761 -0.149985 0.119206 1.80518 -0.144597 0.125685 -20.73 -0.178882 0.0702429 -0.717371 -0.178884 0.0702402 91.5778 -55.5452 -97.3332 20.6742 -8.54921 -0.635907 -9.01927 -31.733 -42.6355 -1.8372 -0.743711 6.83602 -108.96 -54.9197 53.5879 -14.5055 18.2441 0.85222 1.43308 15.6181 -30.1342 10.1292 0.895198 4.60991 12.9709 -2.01984 3.98381 -5.88975 -2.83173 -2.62412 
-6.20463 97.4663 -0.146502 88.8464 -38.0658 89.1807 -172.751 6.09434 88.7053 -11.1827 12.8132 -0.800056 62.4053 2.61526 3.10347 29.9141 0.944365 -0.601634 174.727 4.67418 91.9762 -10.9704 -5.93176 -1.50256 64.9171 -2.69163 -1.48376 27.8556 -0.00855554 -0.515948 -0.0917412 6.69392 -89.9438 13.4789 -0.154744 0.132483 1.80793 -0.14879 0.139156 -20.7273 -0.18741 0.0798487 -0.714636 -0.187434 0.0798398 91.6108 -55.5599 -97.2835 20.7129 -8.42142 -0.511291 -8.68502 -31.4644 -42.6292 -1.02003 -0.674263 6.59904 -108.733 -54.7531 53.815 -14.7555 18.2858 0.788502 0.505292 13.9524 -29.8772 10.5813 0.946529 4.74645 12.7121 -2.06302 3.33075 -5.71949 -2.73613 -1.76521 
-6.15938 97.4413 -0.209211 88.9538 -38.0011 89.2756 -172.771 6.05747 88.6866 -11.3412 12.3723 -0.749152 62.4913 2.61003 2.64781 30.2051 1.20139 -0.963096 174.701 4.55257 91.9565 -10.9266 -5.77675 -1.48616 65.143 -2.80061 -1.54576 27.4668 -0.0540349 -0.157681 -0.0882519 6.70456 -89.9501 13.4658 -0.150854 0.119339 1.79486 -0.145451 0.125853 -20.7403 -0.179736 0.0684858 -0.727697 -0.179759 0.0684739 91.4975 -55.6782 -97.4242 20.6626 -8.28374 -0.183057 -9.13492 -31.1752 -42.888 -0.901229 -0.665503 6.58053 -108.848 -54.8822 53.72 -14.7338 18.3504 0.823515 0.741665 14.3726 -29.9561 10.4213 0.923734 4.65827 12.4024 -2.09991 3.27743 -5.41368 -2.75591 -1.82676 
-6.10826 97.4341 -0.283986 88.8486 -37.7558 89.096 -172.872 6.14988 88.4907 -11.2846 13.0067 -0.788698 62.3678 2.72668 3.32141 30.0774 1.09629 -0.875525 174.57 4.8037 91.7778 -11.2128 -5.81929 -1.45331 65.1389 -2.75759 -1.51814 27.8213 -0.0271136 -0.287864 -0.103686 6.70296 -89.9275 13.4681 -0.170544 0.167026 1.79713 -0.163013 0.174368 -20.7381 -0.212851 0.10805 -0.72543 -0.212856 0.108052 91.576 -55.7484 -97.2993 20.597 -8.2247 -0.579381 -8.70676 -31.3562 -42.2155 -1.0444 -0.671367 6.34648 -108.782 -54.6781 53.7163 -14.8608 18.27 0.763936 0.674404 14.2298 -29.8817 10.4198 0.919059 4.61796 12.3119 -2.1269 2.75418 -5.22436 -2.67253 -1.39462 
-6.02266 97.4291 -0.455643 88.7887 -37.6082 89.0559 -172.931 6.33118 88.3959 -11.5708 12.3517 -0.771981 62.4779 2.75376 2.30787 30.4189 1.36187 -0.884628 174.592 5.15437 91.6914 -11.7563 -5.86859 -1.53823 65.2127 -2.74712 -1.50705 27.9436 0.00139511 -0.604729 -0.109717 6.70365 -89.9118 13.4668 -0.1749 0.199052 1.7958 -0.165983 0.206553 -20.7394 -0.226653 0.137289 -0.726742 -0.226643 0.137282 91.3842 -55.6731 -97.5884 20.9633 -8.03861 0.00388323 -9.54406 -31.0839 -43.098 -1.0024 -0.676914 6.75306 -108.583 -54.4375 53.8764 -14.9494 18.3485 0.609694 0.445875 14.0435 -29.7008 10.6443 0.958053 4.80195 12.2016 -2.14189 2.38567 -5.16456 -2.60613 -1.27774 
-6.08998 97.376 -0.751817 89.0767 -37.7355 89.0547 -173.077 6.49778 88.0702 -12.1702 11.2637 -0.722632 63.1815 3.32821 1.83067 29.0735 0.30566 -0.7623 174.741 5.58056 91.5322 -12.7254 -5.92945 -1.84219 65.4964 -2.86781 -1.57101 27.9376 -0.0149638 -0.379572 -0.117266 6.72983 -89.8925 13.4144 -0.180641 0.238228 1.74346 -0.169982 0.245938 -20.7917 -0.243893 0.172924 -0.779045 -0.243875 0.172922 91.234 -55.8483 -97.7725 20.636 -7.98862 -0.247639 -8.93674 -30.9915 -42.5549 -1.13322 -0.67867 6.54805 -108.556 -54.5115 53.9449 -14.9502 18.3038 0.517981 0.446919 14.1998 -29.4937 10.7603 0.930273 4.48004 12.0005 -2.14445 2.2788 -5.17621 -2.58172 -1.26812 
-6.24106 97.3094 -1.25735 89.6828 -37.6371 89.4627 -173.389 7.09757 87.7993 -13.7682 11.3533 -0.509314 62.6146 3.17029 2.12232 30.462 1.39773 -0.90714 174.933 6.3518 91.4756 -14.6245 -6.07741 -2.11246 65.4654 -2.81986 -1.53941 28.7471 0.0640747 -1.01988 -0.160643 6.81597 -89.9015 13.2422 -0.271037 0.231064 1.57126 -0.260619 0.242765 -20.9641 -0.327966 0.13892 -0.951398 -0.327957 0.138919 91.2135 -55.5812 -97.8519 20.6578 -8.0553 -0.239849 -9.31098 -30.8646 -43.2675 -0.616835 -0.642234 6.63391 -108.745 -54.6269 53.7435 -14.7901 18.1719 0.652376 0.765069 14.0604 -30.0511 10.3741 0.853908 4.07149 11.9571 -2.16863 2.41369 -4.54105 -2.63879 -1.71723 
-6.59069 97.1802 -1.95449 90.031 -37.8525 89.7581 -173.566 8.63323 87.4879 -16.3447 10.1797 -0.430462 63.4842 3.92023 1.79774 29.0033 0.213921 -0.38869 175.5 7.68721 91.6302 -16.7873 -5.9378 -2.59862 65.5259 -2.8836 -1.57644 29.1085 0.111142 -1.53821 -0.186227 6.91985 -89.8776 13.0346 -0.310708 0.282937 1.3636 -0.297961 0.296327 -21.1717 -0.381395 0.176475 -1.15908 -0.3814 0.176469 91.4625 -55.9063 -97.4331 20.3195 -7.98667 -0.784058 -9.3843 -30.8941 -43.6816 -1.05022 -0.681897 7.12901 -108.876 -54.3073 53.4263 -14.6678 17.7036 0.56242 1.4653 14.5043 -30.4538 9.4737 0.769944 3.90969 11.7468 -2.27957 1.51971 -2.97434 -2.56868 -1.23771 
-7.11729 97.0014 -2.93441 90.1485 -38.8328 90.3913 -173.556 10.6995 87.6954 -19.101 10.5106 -0.426564 62.306 3.13624 2.82118 31.2296 2.00556 -1.09696 176.519 9.74169 92.2942 -19.351 -5.45122 -3.14901 64.6124 -2.62462 -1.44426 30.5029 0.156771 -1.44683 -0.155796 7.07121 -89.8858 12.7318 -0.254708 0.258502 1.06082 -0.243061 0.269451 -21.4744 -0.320631 0.169995 -1.46178 -0.32061 0.169997 91.1566 -55.4955 -97.9497 20.2953 -8.42743 -1.26883 -9.26892 -30.5099 -44.5265 -2.46298 -0.7805 7.14871 -108.519 -54.0374 53.784 -14.4447 16.9831 0.627324 2.21363 13.9418 -31.7495 9.50616 0.764097 3.83069 13.1214 -2.42079 1.36746 -2.93864 -2.69446 -2.14744 
